<?xml version="1.0" encoding="UTF-8" standalone="no"?>
<svg
   xmlns:dc="http://purl.org/dc/elements/1.1/"
   xmlns:cc="http://creativecommons.org/ns#"
   xmlns:rdf="http://www.w3.org/1999/02/22-rdf-syntax-ns#"
   xmlns:svg="http://www.w3.org/2000/svg"
   xmlns="http://www.w3.org/2000/svg"
   xmlns:xlink="http://www.w3.org/1999/xlink"
   xmlns:sodipodi="http://sodipodi.sourceforge.net/DTD/sodipodi-0.dtd"
   xmlns:inkscape="http://www.inkscape.org/namespaces/inkscape"
   width="535.08002"
   height="278.22"
   viewBox="0 0 600 300"
   id="svg2"
   sodipodi:version="0.32"
   inkscape:version="0.48.3.1 r9886"
   sodipodi:docname="speed-time.svg"
   inkscape:output_extension="org.inkscape.output.svg.inkscape"
   version="1.0">
  <metadata
     id="metadata193">
    <rdf:RDF>
      <cc:Work
         rdf:about="">
        <dc:format>image/svg+xml</dc:format>
        <dc:type
           rdf:resource="http://purl.org/dc/dcmitype/StillImage" />
        <dc:title />
      </cc:Work>
    </rdf:RDF>
  </metadata>
  <sodipodi:namedview
     inkscape:window-height="1015"
     inkscape:window-width="1920"
     inkscape:pageshadow="2"
     inkscape:pageopacity="0.0"
     guidetolerance="10.0"
     gridtolerance="10.0"
     objecttolerance="10.0"
     borderopacity="1.0"
     bordercolor="#666666"
     pagecolor="#ffffff"
     id="base"
     width="535.08px"
     height="278.22px"
     inkscape:zoom="1.5556349"
     inkscape:cx="391.43711"
     inkscape:cy="156.38085"
     inkscape:window-x="0"
     inkscape:window-y="0"
     inkscape:current-layer="svg2"
     showgrid="false"
     inkscape:window-maximized="1" />
  <desc
     id="desc4">Produced by GNUPLOT 4.2 patchlevel 2  </desc>
  <defs
     id="defs6">
    <circle
       id="gpDot"
       r="1"
       cx="0"
       cy="0"
       sodipodi:cx="0"
       sodipodi:cy="0"
       sodipodi:rx="1"
       sodipodi:ry="1" />
    <path
       id="gpPt0"
       style="stroke-width:0.148"
       d="M -1,0 L 1,0 M 0,-1 L 0,1" />
    <path
       id="gpPt1"
       style="stroke-width:0.148"
       d="M -1,-1 L 1,1 M 1,-1 L -1,1" />
    <path
       id="gpPt2"
       style="stroke-width:0.148"
       d="M -1,0 L 1,0 M 0,-1 L 0,1 M -1,-1 L 1,1 M -1,1 L 1,-1" />
    <rect
       id="gpPt3"
       style="stroke-width:0.148"
       x="-1"
       y="-1"
       width="2"
       height="2" />
    <use
       xlink:href="#gpPt3"
       id="gpPt4"
       style="fill:currentColor;stroke:none"
       x="0"
       y="0"
       width="600"
       height="300" />
    <circle
       id="gpPt5"
       style="stroke-width:0.148"
       cx="0"
       cy="0"
       r="1"
       sodipodi:cx="0"
       sodipodi:cy="0"
       sodipodi:rx="1"
       sodipodi:ry="1" />
    <use
       xlink:href="#gpPt5"
       id="gpPt6"
       style="fill:currentColor;stroke:none"
       x="0"
       y="0"
       width="600"
       height="300" />
    <path
       id="gpPt7"
       style="stroke-width:0.148"
       d="M 0,-1.33 L -1.33,0.67 L 1.33,0.67 L 0,-1.33 z " />
    <use
       xlink:href="#gpPt7"
       id="gpPt8"
       style="fill:currentColor;stroke:none"
       x="0"
       y="0"
       width="600"
       height="300" />
    <use
       xlink:href="#gpPt7"
       id="gpPt9"
       transform="scale(-1,-1)"
       x="0"
       y="0"
       width="600"
       height="300" />
    <use
       xlink:href="#gpPt9"
       id="gpPt10"
       style="fill:currentColor;stroke:none"
       x="0"
       y="0"
       width="600"
       height="300" />
    <use
       xlink:href="#gpPt3"
       id="gpPt11"
       transform="matrix(0.7071068,0.7071068,-0.7071068,0.7071068,0,0)"
       x="0"
       y="0"
       width="600"
       height="300" />
    <use
       xlink:href="#gpPt11"
       id="gpPt12"
       style="fill:currentColor;stroke:none"
       x="0"
       y="0"
       width="600"
       height="300" />
  </defs>
  <g
     style="color:#ffffff;fill:none;stroke:currentColor;stroke-width:1;stroke-linecap:butt;stroke-linejoin:miter"
     id="g22"
     transform="translate(-37.772461,-15.297412)" />
  <g
     style="color:#000000;fill:none;stroke:currentColor;stroke-width:1;stroke-linecap:butt;stroke-linejoin:miter"
     id="g24"
     transform="translate(-37.772461,-15.297412)" />
  <g
     style="color:#808080;fill:none;stroke:currentColor;stroke-width:0.51162235;stroke-linecap:butt;stroke-linejoin:miter;stroke-miterlimit:4;stroke-dasharray:none"
     id="g26"
     transform="matrix(1.0958548,0,0,1.0958548,-36.315204,-18.800618)">
    <path
       d="M 63.5,246 L 561.5,246"
       id="path28"
       style="stroke-width:0.51162235;stroke-miterlimit:4;stroke-dasharray:none" />
  </g>
  <g
     style="color:#000000;fill:none;stroke:currentColor;stroke-width:1;stroke-linecap:butt;stroke-linejoin:miter"
     id="g30"
     transform="matrix(1.0958548,0,0,1.0958548,-36.315204,-18.800618)">
    <path
       d="M 63.5,246 L 50,246"
       id="path32" />
    <g
       transform="translate(51,252.7)"
       style="font-size:22.5px;text-anchor:end;fill:#000000;stroke:none;font-family:Bitstream Vera Sans"
       id="g34">
      <text
         id="text36">0</text>
    </g>
  </g>
  <path
     inkscape:connector-curvature="0"
     style="color:#808080;fill:none;stroke:#0034ff;stroke-width:1.09585476;stroke-linecap:butt;stroke-linejoin:miter;stroke-opacity:1"
     id="path40"
     d="m 33.271575,202.34288 545.735695,0" />
  <path
     inkscape:connector-curvature="0"
     id="path3081"
     d="M 32.436751,249.76418 276.07278,8.2905912"
     style="color:#808080;fill:none;stroke:#009206;stroke-width:2.24265528;stroke-linecap:butt;stroke-linejoin:miter;stroke-miterlimit:4;stroke-opacity:1;stroke-dasharray:none"
     sodipodi:nodetypes="cc" />
  <path
     sodipodi:nodetypes="cc"
     style="color:#808080;fill:none;stroke:#ff0000;stroke-width:2.24265523;stroke-linecap:butt;stroke-linejoin:miter;stroke-opacity:1;stroke-miterlimit:4;stroke-dasharray:none"
     d="m 33.598625,33.158759 545.217135,0"
     id="path3851"
     inkscape:connector-curvature="0" />
  <g
     style="color:#000000;fill:none;stroke:currentColor;stroke-width:1;stroke-linecap:butt;stroke-linejoin:miter"
     id="g42"
     transform="matrix(1.0958548,0,0,1.0958548,-36.315204,-18.800618)">
    <path
       d="M 63.5,201.8 L 50,201.8"
       id="path44" />
    <g
       transform="translate(51,208.5)"
       style="font-size:22.5px;text-anchor:end;fill:#000000;stroke:none;font-family:Bitstream Vera Sans"
       id="g46">
      <text
         id="text48">1</text>
    </g>
  </g>
  <g
     style="color:#808080;fill:none;stroke:currentColor;stroke-width:0.51162235;stroke-linecap:butt;stroke-linejoin:miter;stroke-miterlimit:4;stroke-dasharray:none"
     id="g50"
     transform="matrix(1.0958548,0,0,1.0958548,-36.315204,-18.800618)">
    <path
       d="M 63.5,157.6 L 561.5,157.6"
       id="path52"
       style="stroke-width:0.51162235;stroke-miterlimit:4;stroke-dasharray:none" />
  </g>
  <g
     style="color:#000000;fill:none;stroke:currentColor;stroke-width:1;stroke-linecap:butt;stroke-linejoin:miter"
     id="g54"
     transform="matrix(1.0958548,0,0,1.0958548,-36.315204,-18.800618)">
    <path
       d="M 63.5,157.6 L 50,157.6"
       id="path56" />
    <g
       transform="translate(51,164.3)"
       style="font-size:22.5px;text-anchor:end;fill:#000000;stroke:none;font-family:Bitstream Vera Sans"
       id="g58">
      <text
         id="text60">2</text>
    </g>
  </g>
  <g
     style="color:#808080;fill:none;stroke:currentColor;stroke-width:0.51162235;stroke-linecap:butt;stroke-linejoin:miter;stroke-miterlimit:4;stroke-dasharray:none"
     id="g62"
     transform="matrix(1.0958548,0,0,1.0958548,-36.315204,-18.800618)">
    <path
       d="M 63.5,113.4 L 561.5,113.4"
       id="path64"
       style="stroke-width:0.51162235;stroke-miterlimit:4;stroke-dasharray:none" />
  </g>
  <g
     style="color:#000000;fill:none;stroke:currentColor;stroke-width:1;stroke-linecap:butt;stroke-linejoin:miter"
     id="g66"
     transform="matrix(1.0958548,0,0,1.0958548,-36.315204,-18.800618)">
    <path
       d="M 63.5,113.4 L 50,113.4"
       id="path68" />
    <g
       transform="translate(51,120.1)"
       style="font-size:22.5px;text-anchor:end;fill:#000000;stroke:none;font-family:Bitstream Vera Sans"
       id="g70">
      <text
         id="text72">3</text>
    </g>
  </g>
  <g
     style="color:#808080;fill:none;stroke:currentColor;stroke-width:0.51162235;stroke-linecap:butt;stroke-linejoin:miter;stroke-miterlimit:4;stroke-dasharray:none"
     id="g74"
     transform="matrix(1.0958548,0,0,1.0958548,-36.315204,-18.800618)">
    <path
       d="M 63.5,69.2 L 561.5,69.2"
       id="path76"
       style="stroke-width:0.51162235;stroke-miterlimit:4;stroke-dasharray:none" />
  </g>
  <g
     style="color:#000000;fill:none;stroke:currentColor;stroke-width:1;stroke-linecap:butt;stroke-linejoin:miter"
     id="g78"
     transform="matrix(1.0958548,0,0,1.0958548,-36.315204,-18.800618)">
    <path
       d="M 63.5,69.2 L 50,69.2"
       id="path80" />
    <g
       transform="translate(51,75.9)"
       style="font-size:22.5px;text-anchor:end;fill:#000000;stroke:none;font-family:Bitstream Vera Sans"
       id="g82">
      <text
         id="text84">4</text>
    </g>
  </g>
  <g
     style="color:#808080;fill:none;stroke:currentColor;stroke-width:0.51162235;stroke-linecap:butt;stroke-linejoin:miter;stroke-miterlimit:4;stroke-dasharray:none"
     id="g86"
     transform="matrix(1.0958548,0,0,1.0958548,-36.315204,-18.800618)">
    <path
       d="M 63.5,25 L 561.5,25"
       id="path88"
       style="stroke-width:0.51162235;stroke-miterlimit:4;stroke-dasharray:none" />
  </g>
  <g
     style="color:#000000;fill:none;stroke:currentColor;stroke-width:1;stroke-linecap:butt;stroke-linejoin:miter"
     id="g90"
     transform="matrix(1.0958548,0,0,1.0958548,-36.315204,-18.800618)">
    <path
       d="M 63.5,25 L 50,25"
       id="path92" />
    <g
       transform="translate(51,31.7)"
       style="font-size:22.5px;text-anchor:end;fill:#000000;stroke:none;font-family:Bitstream Vera Sans"
       id="g94">
      <text
         id="text96">5</text>
    </g>
  </g>
  <g
     style="color:#808080;fill:none;stroke:currentColor;stroke-width:0.51162235;stroke-linecap:butt;stroke-linejoin:miter;stroke-miterlimit:4;stroke-dasharray:none"
     id="g98"
     transform="matrix(1.0958548,0,0,1.0958548,-36.315204,-18.800618)">
    <path
       d="M 63.5,246 L 63.5,25"
       id="path100"
       style="stroke-width:0.51162235;stroke-miterlimit:4;stroke-dasharray:none" />
  </g>
  <g
     style="color:#000000;fill:none;stroke:currentColor;stroke-width:1;stroke-linecap:butt;stroke-linejoin:miter"
     id="g102"
     transform="matrix(1.0958548,0,0,1.0958548,-36.315204,-18.800618)">
    <path
       d="M 63.5,246 L 63.5,259.5"
       id="path104" />
    <g
       transform="translate(63.5,293.2)"
       style="font-size:22.5px;text-anchor:middle;fill:#000000;stroke:none;font-family:Bitstream Vera Sans"
       id="g106">
      <text
         id="text108">0</text>
    </g>
    <path
       d="M 83.4,246 L 83.4,252.7 M 103.3,246 L 103.3,252.7 M 123.3,246 L 123.3,252.7 M 143.2,246 L 143.2,252.7"
       id="path110" />
  </g>
  <g
     style="color:#808080;fill:none;stroke:currentColor;stroke-width:0.51162235;stroke-linecap:butt;stroke-linejoin:miter;stroke-miterlimit:4;stroke-dasharray:none"
     id="g112"
     transform="matrix(1.0958548,0,0,1.0958548,-36.315204,-18.800618)">
    <path
       d="M 163.1,246 L 163.1,25"
       id="path114"
       style="stroke-width:0.51162235;stroke-miterlimit:4;stroke-dasharray:none" />
  </g>
  <g
     style="color:#000000;fill:none;stroke:currentColor;stroke-width:1;stroke-linecap:butt;stroke-linejoin:miter"
     id="g116"
     transform="matrix(1.0958548,0,0,1.0958548,-36.315204,-18.800618)">
    <path
       d="M 163.1,246 L 163.1,259.5"
       id="path118" />
    <g
       transform="translate(163.1,293.2)"
       style="font-size:22.5px;text-anchor:middle;fill:#000000;stroke:none;font-family:Bitstream Vera Sans"
       id="g120">
      <text
         id="text122">5</text>
    </g>
    <path
       d="M 183,246 L 183,252.7 M 202.9,246 L 202.9,252.7 M 222.9,246 L 222.9,252.7 M 242.8,246 L 242.8,252.7"
       id="path124" />
  </g>
  <g
     style="color:#808080;fill:none;stroke:currentColor;stroke-width:0.51162235;stroke-linecap:butt;stroke-linejoin:miter;stroke-miterlimit:4;stroke-dasharray:none"
     id="g126"
     transform="matrix(1.0958548,0,0,1.0958548,-36.315204,-18.800618)">
    <path
       d="M 262.7,246 L 262.7,25"
       id="path128"
       style="stroke-width:0.51162235;stroke-miterlimit:4;stroke-dasharray:none" />
  </g>
  <g
     style="color:#000000;fill:none;stroke:currentColor;stroke-width:1;stroke-linecap:butt;stroke-linejoin:miter"
     id="g130"
     transform="matrix(1.0958548,0,0,1.0958548,-36.315204,-18.800618)">
    <path
       d="M 262.7,246 L 262.7,259.5"
       id="path132" />
    <g
       transform="translate(262.7,293.2)"
       style="font-size:22.5px;text-anchor:middle;fill:#000000;stroke:none;font-family:Bitstream Vera Sans"
       id="g134">
      <text
         id="text136">10</text>
    </g>
    <path
       d="M 282.6,246 L 282.6,252.7 M 302.5,246 L 302.5,252.7 M 322.5,246 L 322.5,252.7 M 342.4,246 L 342.4,252.7"
       id="path138" />
  </g>
  <g
     style="color:#808080;fill:none;stroke:currentColor;stroke-width:0.51162235;stroke-linecap:butt;stroke-linejoin:miter;stroke-miterlimit:4;stroke-dasharray:none"
     id="g140"
     transform="matrix(1.0958548,0,0,1.0958548,-36.315204,-18.800618)">
    <path
       d="M 362.3,246 L 362.3,25"
       id="path142"
       style="stroke-width:0.51162235;stroke-miterlimit:4;stroke-dasharray:none" />
  </g>
  <g
     style="color:#000000;fill:none;stroke:currentColor;stroke-width:1;stroke-linecap:butt;stroke-linejoin:miter"
     id="g144"
     transform="matrix(1.0958548,0,0,1.0958548,-36.315204,-18.800618)">
    <path
       d="M 362.3,246 L 362.3,259.5"
       id="path146" />
    <g
       transform="translate(362.3,293.2)"
       style="font-size:22.5px;text-anchor:middle;fill:#000000;stroke:none;font-family:Bitstream Vera Sans"
       id="g148">
      <text
         id="text150">15</text>
    </g>
    <path
       d="M 382.2,246 L 382.2,252.7 M 402.1,246 L 402.1,252.7 M 422.1,246 L 422.1,252.7 M 442,246 L 442,252.7"
       id="path152" />
  </g>
  <g
     style="color:#808080;fill:none;stroke:currentColor;stroke-width:0.51162235;stroke-linecap:butt;stroke-linejoin:miter;stroke-miterlimit:4;stroke-dasharray:none"
     id="g154"
     transform="matrix(1.0958548,0,0,1.0958548,-36.315204,-18.800618)">
    <path
       d="M 461.9,246 L 461.9,25"
       id="path156"
       style="stroke-width:0.51162235;stroke-miterlimit:4;stroke-dasharray:none" />
  </g>
  <g
     style="color:#000000;fill:none;stroke:currentColor;stroke-width:1;stroke-linecap:butt;stroke-linejoin:miter"
     id="g158"
     transform="matrix(1.0958548,0,0,1.0958548,-36.315204,-18.800618)">
    <path
       d="M 461.9,246 L 461.9,259.5"
       id="path160" />
    <g
       transform="translate(461.9,293.2)"
       style="font-size:22.5px;text-anchor:middle;fill:#000000;stroke:none;font-family:Bitstream Vera Sans"
       id="g162">
      <text
         id="text164">20</text>
    </g>
    <path
       d="M 481.8,246 L 481.8,252.7 M 501.7,246 L 501.7,252.7 M 521.7,246 L 521.7,252.7 M 541.6,246 L 541.6,252.7"
       id="path166" />
  </g>
  <g
     style="color:#808080;fill:none;stroke:currentColor;stroke-width:0.51162235;stroke-linecap:butt;stroke-linejoin:miter;stroke-miterlimit:4;stroke-dasharray:none"
     id="g168"
     transform="matrix(1.0958548,0,0,1.0958548,-36.315204,-18.800618)">
    <path
       d="M 561.5,246 L 561.5,25"
       id="path170"
       style="stroke-width:0.51162235;stroke-miterlimit:4;stroke-dasharray:none" />
  </g>
  <g
     style="color:#000000;fill:none;stroke:currentColor;stroke-width:1;stroke-linecap:butt;stroke-linejoin:miter"
     id="g172"
     transform="matrix(1.0958548,0,0,1.0958548,-36.315204,-18.800618)">
    <path
       d="M 561.5,246 L 561.5,259.5"
       id="path174" />
    <g
       transform="translate(561.5,293.2)"
       style="font-size:22.5px;text-anchor:middle;fill:#000000;stroke:none;font-family:Bitstream Vera Sans"
       id="g176">
      <text
         id="text178">25</text>
    </g>
    <path
       d="M 63.5,246 L 561.5,246 M 63.5,246 L 63.5,25"
       id="path180" />
  </g>
  <g
     style="color:#000000;fill:none;stroke:currentColor;stroke-width:2;stroke-linecap:butt;stroke-linejoin:miter"
     id="g182"
     transform="translate(-37.772461,-15.297412)" />
  <path
     style="color:#ff0000;fill:none;stroke:#0034ff;stroke-width:2.24265528;stroke-linecap:butt;stroke-linejoin:miter;stroke-miterlimit:4;stroke-opacity:1;stroke-dasharray:none"
     d="M 33.271576,250.77966 C 33.877338,220.44273 57.226472,197.42061 79.735819,180.09703 128.73334,144.12289 185.94758,121.66429 242.57984,100.75714 352.30251,62.015115 465.54307,34.021417 579.00727,8.595752"
     id="path186"
     inkscape:connector-curvature="0" />
  <g
     style="color:#ff0000;fill:none;stroke:#ff0000;stroke-width:1;stroke-linecap:butt;stroke-linejoin:miter"
     id="g188"
     transform="translate(-37.772461,-15.297412)" />
  <g
     style="color:#000000;fill:none;stroke:currentColor;stroke-width:1;stroke-linecap:butt;stroke-linejoin:miter"
     id="g190"
     transform="translate(-37.772461,-15.297412)" />
  <path
     inkscape:connector-curvature="0"
     id="path3891"
     d="M 33.271575,253.66293 142.43683,144.8684 c 27.50728,-12.72481 71.82687,-30.77441 100.143,-41.22799 54.86133,-19.371015 177.16992,-55.231185 233.84659,-68.373933 l 102.58084,1.441126"
     style="color:#ff0000;fill:none;stroke:#000000;stroke-width:2.24265528;stroke-linecap:butt;stroke-linejoin:miter;stroke-miterlimit:4;stroke-opacity:1;stroke-dasharray:8.97062093, 2.24265523;stroke-dashoffset:0"
     sodipodi:nodetypes="ccccc" />
  <path
     style="color:#ff0000;fill:none;stroke:#dd8a00;stroke-width:2.24265523;stroke-linecap:butt;stroke-linejoin:miter;stroke-miterlimit:4;stroke-opacity:1;stroke-dasharray:none;stroke-dashoffset:0"
     d="M 36.875659,252.94212 C 164.70901,107.13602 376.82317,41.453177 576.84482,40.311685"
     id="path3893"
     inkscape:connector-curvature="0"
     sodipodi:nodetypes="cc" />
  <path
     inkscape:connector-curvature="0"
     d="M 614.52429,41.31074 C 534.14469,46.123656 453.7651,53.399012 373.3855,69.927115 312.03672,82.575033 250.68792,100.63284 189.38805,133.01748 139.73177,159.24607 90.075446,194.91395 40.419167,251.06474"
     id="path56-0"
     style="fill:#000000;fill-opacity:0;stroke:#4001cd;stroke-width:2.24265523;stroke-miterlimit:4;stroke-opacity:1;stroke-dasharray:none"
     sodipodi:nodetypes="cccc" />
  <text
     xml:space="preserve"
     style="font-size:13.45593166px;font-style:normal;font-weight:normal;line-height:125%;letter-spacing:0px;word-spacing:0px;fill:#1301cd;fill-opacity:1;stroke:none;font-family:Sans"
     x="589.62805"
     y="56.585304"
     id="text3138"
     sodipodi:linespacing="125%"><tspan
       sodipodi:role="line"
       id="tspan3140"
       x="589.62805"
       y="56.585304">y=1-exp(-x)</tspan></text>
  <text
     sodipodi:linespacing="125%"
     id="text3142"
     y="0.36160159"
     x="537.00842"
     style="font-size:13.45593166px;font-style:normal;font-weight:normal;line-height:125%;letter-spacing:0px;word-spacing:0px;fill:#0034ff;fill-opacity:1;stroke:none;font-family:Sans"
     xml:space="preserve"><tspan
       y="0.36160159"
       x="537.00842"
       id="tspan3144"
       sodipodi:role="line">y=sqrt(x)</tspan></text>
  <text
     xml:space="preserve"
     style="font-size:13.45593166px;font-style:normal;font-weight:normal;line-height:125%;letter-spacing:0px;word-spacing:0px;fill:#009206;fill-opacity:1;stroke:none;font-family:Sans"
     x="278.95605"
     y="3.2448685"
     id="text3914"
     sodipodi:linespacing="125%"><tspan
       sodipodi:role="line"
       id="tspan3916"
       x="278.95605"
       y="3.2448685">y=kx</tspan></text>
  <text
     sodipodi:linespacing="125%"
     id="text3918"
     y="21.986105"
     x="76.40657"
     style="font-size:13.45593165999999918px;font-style:normal;font-weight:normal;line-height:125%;letter-spacing:0px;word-spacing:0px;fill:#ff0000;fill-opacity:1;stroke:none;font-family:Sans"
     xml:space="preserve"><tspan
       y="21.986105"
       x="76.40657"
       id="tspan3920"
       sodipodi:role="line">y=c</tspan></text>
</svg>
